PathFileType	4	(X/Y/Z)	31_2_rein_89_p0_0-226_filt_butterworth.trc
DataRate	CameraRate	NumFrames	NumMarkers	Units	OrigDataRate	OrigDataStartFrame	OrigNumFrames
42.0	42.0	4	27	m	42.0	0	226
Frame#	Time	RHip			RKnee			RAnkle			RBigToe			RSmallToe			RHeel			LHip			LKnee			LAnkle			LBigToe			LSmallToe			LHeel			Neck			Head			Nose			RShoulder			RElbow			RWrist			RThumb			RIndex			RPinky			LShoulder			LElbow			LWrist			LThumb			LIndex			LPinky			
		X1	Y1	Z1	X2	Y2	Z2	X3	Y3	Z3	X4	Y4	Z4	X5	Y5	Z5	X6	Y6	Z6	X7	Y7	Z7	X8	Y8	Z8	X9	Y9	Z9	X10	Y10	Z10	X11	Y11	Z11	X12	Y12	Z12	X13	Y13	Z13	X14	Y14	Z14	X15	Y15	Z15	X16	Y16	Z16	X17	Y17	Z17	X18	Y18	Z18	X19	Y19	Z19	X20	Y20	Z20	X21	Y21	Z21	X22	Y22	Z22	X23	Y23	Z23	X24	Y24	Z24	X25	Y25	Z25	X26	Y26	Z26	X27	Y27	Z27	
0	0.0	0.16480785138615606	0.44166995125939124	0.8137241802234333	0.14173775705876449	0.017398649991596238	0.8630269393118701	0.10093822990009613	-0.41109679713635267	0.9360038440150883	0.07119193939690605	-0.40501700057686707	0.7362488631345623	0.12929497020884334	-0.41847224153003304	0.772354672660099	0.08181893426935642	-0.46921498722660626	0.9891605698661843	-0.041130138553730336	0.43180088242063036	0.9063000475398655	-0.06690456960753732	0.01852830359288865	0.9140287224218667	-0.07415557479249008	-0.3988487375407629	0.9377454930008079	-0.08057215905854083	-0.3738091774480647	0.7298565656941853	-0.13399100830576177	-0.4033776190726852	0.7972330516817142	-0.058886260299450634	-0.45535915225236856	0.9797272385680387	0.10722412695140546	1.1003297308196638	0.8664230765856298	0.08871975583802871	1.3839197952596867	0.8022700880392333	0.08767095017491797	1.2439371204782073	0.7485678137553358	0.25761699283501677	1.0019749778883387	0.8446058531686375	0.2949886667951716	0.6940852801436681	0.7728750494843724	0.06193029431375378	0.5677403155362086	0.7024328936750482	0.04995864746516185	0.4707423015758304	0.6413793222136649	0.022328506081191152	0.4680347708868372	0.6509388688810958	-0.005249550501512725	0.4867627108012691	0.6540702242074843	-0.04821321761571926	1.002430178058228	0.8754183745946613	-0.0925767314875866	0.7208987286369181	0.8365166207687678	0.020987671501211537	0.5313100381375169	0.6561467541593133	0.09350447022139104	0.454795661555714	0.6403657308402255	0.09965436844447188	0.40828004828804465	0.6234618101073943	0.0695934619904633	0.4059782290253255	0.634937198538132	
1	0.0238095238095238	0.1641035482046859	0.43988715375262566	0.8185915878379681	0.14185416447475274	0.017997584399869426	0.8633281276788894	0.10112556835082323	-0.41041510213814514	0.935928451533633	0.07135118659681274	-0.40625193099617685	0.7373814294555076	0.12870053850331797	-0.4182875679323948	0.7714169922948368	0.08309472426833686	-0.4722031827086918	0.9928489855537536	-0.04073399103902844	0.43025088610431456	0.9078887346729391	-0.06689379528448984	0.01869092696888003	0.9140627469421225	-0.07492928177363158	-0.39758582875368764	0.9369857442602963	-0.07903877065743965	-0.37791887353658027	0.7361579829196796	-0.13397563943251825	-0.40343140281085926	0.7973609353626513	-0.057501727694204474	-0.4563691385567481	0.9819825625808876	0.10781872260236725	1.102063529887561	0.8678896608934602	0.08870398967063782	1.384039201781187	0.8022679205080179	0.08766346358433078	1.2439616689054735	0.7485783869635506	0.25775698405229386	1.002045806230793	0.8446090419564184	0.29533655245921975	0.6934509792523613	0.7736414575360828	0.062368875878379824	0.5690795314432844	0.7025288865672015	0.046651619151889354	0.47145378200301047	0.6560035614776636	0.017293298808588754	0.4715061146024183	0.6522868265972864	-0.005254211885705758	0.48875373641764436	0.6544026966081683	-0.04997743228568241	1.0033285867512995	0.8698053661898895	-0.09252533897391557	0.7231745487190218	0.8365117278796954	0.01969787987468979	0.5318954584768243	0.6529614735921357	0.09310651909805288	0.4547938425700295	0.6451680291740948	0.09891751657337498	0.40986980473574786	0.6234840748032704	0.06602712413091699	0.40511835470636864	0.6408402692248978	
2	0.0476190476190476	0.16352591181566964	0.4385380091284692	0.8225019733223131	0.14197157840038763	0.018527832199083993	0.8635951232820431	0.10127997319710624	-0.4098606461001242	0.9358691530816896	0.0710510814674892	-0.4062544740619391	0.7368962932101238	0.12829176811361023	-0.4181096509833897	0.7706421021838805	0.08425008765051203	-0.47489701098582077	0.9961935431018655	-0.04047736392636247	0.42914092765397693	0.9089315237123639	-0.06689214726269752	0.018776945165911052	0.9140853175892609	-0.07558350475893594	-0.39644182598117367	0.9363460886877282	-0.07808274034509696	-0.3804519975692966	0.7400402717268122	-0.13395732300740124	-0.4034256293580551	0.7974225605308635	-0.0563615075127113	-0.4574112435691817	0.9840651438737197	0.10767518133638984	1.1029443622780122	0.86744356317504	0.08868842742058312	1.3841131469878722	0.8022513708198219	0.08765381305371794	1.2439699622953881	0.7485833025196211	0.2579309192780626	1.0020987440494693	0.8446189970044922	0.29552296399015965	0.6932821106276308	0.7740680726699823	0.06263025924392299	0.5698553941895932	0.7026184422931703	0.04428913353677245	0.47211510200563445	0.6645601894210968	0.014146758835199145	0.4733446145270399	0.652996005707442	-0.00525914492350305	0.4896190069215861	0.6545361333669939	-0.05108383997066999	1.0038821617887976	0.8663199232163843	-0.09250186350910683	0.7249058142370437	0.8364326523348652	0.018748840006256255	0.5326764732987066	0.6504290695856118	0.09285979765608354	0.4547871634377308	0.6481534698586693	0.09810524553403366	0.41089436375322463	0.623491809784162	0.0642566330338305	0.4047539355994705	0.6450244397923499	
3	0.0714285714285714	0.16306551199817232	0.43758531482650354	0.8255318638452029	0.14208884073984387	0.01899374629922268	0.8638297414347993	0.10140386334704676	-0.40942366247576306	0.935824586410644	0.07039847728656484	-0.4052940170698721	0.7351586204212969	0.12803350128015148	-0.41793978623071043	0.7700113507696825	0.08529056152608007	-0.477309825212394	0.9992102468677441	-0.0403472778777021	0.42843170172980444	0.9094790417099623	-0.06689777967562686	0.01880016332132295	0.9140984285831861	-0.07612705988777221	-0.39541147474254884	0.9358176790329632	-0.0775905648883135	-0.3817224029284886	0.7419836119852066	-0.13393864483168214	-0.4033788694267773	0.7974323183216746	-0.05544444497557209	-0.45847390397396676	0.9859806783116383	0.10698904380860652	1.1031596052304804	0.8655947040274126	0.0886736737555813	1.3841503244785955	0.8022242030725187	0.08764274364629142	1.2439659738709035	0.7485836983161628	0.258079484096689	1.0021389550897655	0.844627396858354	0.29553316314490813	0.6934790069215249	0.7741109637497059	0.06273602520103898	0.5702030724025186	0.7026662918007052	0.04272225212089228	0.4727078506354311	0.6683157117056301	0.012518285542252233	0.4739021140430121	0.6532069706991305	-0.005264339724109252	0.4896169685863654	0.654514312296834	-0.05166088130858901	1.0041594865796908	0.8645417575351539	-0.09250057716381979	0.7261664183490102	0.8363031980401292	0.01809112880734829	0.5335870343628231	0.6485000533651475	0.09273215514402923	0.4547775619348184	0.6496820355463061	0.09725489501899297	0.4114582688396726	0.623489596584776	0.06386564385206743	0.4047116062378725	0.6477566792457148	
